<?xml version="1.0" encoding="utf-8"?>
<!-- Generator: Adobe Illustrator 22.1.0, SVG Export Plug-In . SVG Version: 6.00 Build 0)  -->
<svg version="1.1" xmlns="http://www.w3.org/2000/svg" xmlns:xlink="http://www.w3.org/1999/xlink" x="0px" y="0px"
	 viewBox="0 0 502.7 197.2" style="enable-background:new 0 0 502.7 197.2;" xml:space="preserve">
<style type="text/css">
	.st0{fill:#9F87BB;}
	.st1{fill:#FFFFFF;}
</style>
<g id="BACKGROUND">
</g>
<g id="OBJECTS">
	<g>
		<g>
			<path class="st0" d="M189.8,79c0,0,12.5,44.3-37.1,69.8c0,0-26.4-34.4,16.4-51.5c0,0-54.6,16.4-40.5-26.5
				C144.6,22.6,189.8,79,189.8,79z"/>
			<path class="st0" d="M191.3,67.8c0,0-1.1-49.5-32.5-30C158.8,37.8,182.4,32.7,191.3,67.8z"/>
			<path class="st0" d="M196.4,67.8c0,0,1.1-49.5,32.5-30C228.8,37.8,205.2,32.7,196.4,67.8z"/>
			<path class="st0" d="M197.8,79c0,0-12.5,44.3,37.1,69.8c0,0,26.4-34.4-16.4-51.5c0,0,54.6,16.4,40.5-26.5
				C243.1,22.6,197.8,79,197.8,79z"/>
		</g>
		<g>
			<g>
				<polygon class="st1" points="281.6,77.3 487.9,80.6 281.6,83.8 				"/>
			</g>
			<g>
				<polygon class="st1" points="12.1,80.6 106.8,77.3 106.8,83.8 				"/>
			</g>
		</g>
		<g>
			<g>
				<path class="st1" d="M35.4,146.1c0-1.9,1.3-3.3,3.1-3.3c1.8,0,3,1.3,3,3.3c0,1.9-1.2,3.3-3.1,3.3
					C36.6,149.4,35.4,148,35.4,146.1z"/>
				<path class="st1" d="M57.6,114h4.5v16.8h0.2c0.9-1.3,1.9-2.6,2.7-3.7L75.6,114h5.6l-12.6,14.8l13.6,20h-5.3l-11.5-17.1l-3.3,3.8
					v13.3h-4.5V114z"/>
				<path class="st1" d="M100.4,114v34.8h-4.5V114H100.4z"/>
				<path class="st1" d="M117.3,146.1c0-1.9,1.3-3.3,3.1-3.3c1.8,0,3,1.3,3,3.3c0,1.9-1.2,3.3-3.1,3.3
					C118.6,149.4,117.3,148,117.3,146.1z"/>
			</g>
		</g>
		<g>
			<g>
				<path class="st1" d="M264.8,114.5c2-0.4,5.1-0.7,8.2-0.7c4.5,0,7.4,0.8,9.5,2.5c1.8,1.3,2.9,3.4,2.9,6.1c0,3.4-2.2,6.3-5.9,7.6
					v0.1c3.3,0.8,7.2,3.6,7.2,8.7c0,3-1.2,5.3-2.9,7c-2.4,2.2-6.3,3.3-12,3.3c-3.1,0-5.5-0.2-7-0.4V114.5z M269.3,128.7h4.1
					c4.7,0,7.5-2.5,7.5-5.8c0-4.1-3.1-5.7-7.6-5.7c-2.1,0-3.3,0.2-4,0.3V128.7z M269.3,145.4c0.9,0.2,2.2,0.2,3.8,0.2
					c4.6,0,8.9-1.7,8.9-6.8c0-4.7-4.1-6.7-9-6.7h-3.7V145.4z"/>
				<path class="st1" d="M321.1,132.5h-13.5V145h15.1v3.8h-19.6V114h18.8v3.8h-14.3v11h13.5V132.5z"/>
				<path class="st1" d="M338.8,114h4.5v31h14.9v3.8h-19.3V114z"/>
				<path class="st1" d="M391.4,132.5h-13.5V145H393v3.8h-19.6V114h18.8v3.8h-14.3v11h13.5V132.5z"/>
				<path class="st1" d="M406.8,146.2l19.3-28.2v-0.2h-17.6V114h23.5v2.7l-19.2,28.1v0.2h19.4v3.8h-25.4V146.2z"/>
				<path class="st1" d="M453.6,137.9l-3.6,10.9h-4.6l11.8-34.8h5.4l11.9,34.8h-4.8l-3.7-10.9H453.6z M465,134.4l-3.4-10
					c-0.8-2.3-1.3-4.3-1.8-6.3h-0.1c-0.5,2.1-1.1,4.2-1.8,6.3l-3.4,10.1H465z"/>
			</g>
		</g>
		<g>
			<path class="st1" d="M21.7,176.1c37.2-1.3,74.5-2,111.7-2.5c18.6-0.3,37.2-0.4,55.9-0.5l55.9-0.2l55.9,0.2
				c18.6,0.2,37.2,0.2,55.9,0.5c37.2,0.5,74.5,1.2,111.7,2.5c-37.2,1.3-74.5,2-111.7,2.5c-18.6,0.3-37.2,0.4-55.9,0.5l-55.9,0.2
				l-55.9-0.2c-18.6-0.2-37.2-0.2-55.9-0.5C96.2,178.1,59,177.4,21.7,176.1z"/>
		</g>
	</g>
</g>
<g id="DESIGNED_BY_FREEPIK">
</g>
</svg>
